# xmcd CD database file
#
# Track frame offsets:
#	150
#	18331
#	32127
#	48356
#	62417
#	78002
#	95701
#	128884
#	150623
#	176175
#	207800
#
# Disc length: 3177 seconds
#
# Revision: 6
# Processed by: cddbd v1.5.2PL0 Copyright (c) Steve Scherf et al.
# Submitted via: CDex 1.70beta2
#
DISCID=870c670b
DTITLE=陳奐仁 - Raw Jazz
DYEAR=2009
DGENRE=Jazz
TTITLE0=Sweet Lorraine
TTITLE1=Wave
TTITLE2=Honeysuckle Rose
TTITLE3=Cheek To Cheek
TTITLE4=That Old Black Magic
TTITLE5=Moody's Mood For Love
TTITLE6=Skylark
TTITLE7=I've Got You Under My Skin
TTITLE8=A Foggy Day
TTITLE9=The Nearness Of You
TTITLE10=Spain
EXTD=YEAR: 2009
EXTT0=
EXTT1=
EXTT2=
EXTT3=
EXTT4=
EXTT5=
EXTT6=
EXTT7=
EXTT8=
EXTT9=
EXTT10=
PLAYORDER=
